<?xml version="1.0" encoding="UTF-8"?>
<svg width="960" height="320" viewBox="0 0 960 320" xmlns="http://www.w3.org/2000/svg" role="img" aria-label="AIS — Anonymous Immigration Support logo">
  <defs>
    <linearGradient id="g1" x1="0" y1="0" x2="1" y2="1">
      <stop offset="0%" stop-color="#0E7490"/>
      <stop offset="100%" stop-color="#0B5563"/>
    </linearGradient>
    <style>
      .wordmark { font-family: Inter, system-ui, -apple-system, "Segoe UI", Roboto, Arial, sans-serif; font-weight: 800; letter-spacing: 1px; }
      .tagline { font-family: Inter, system-ui, -apple-system, "Segoe UI", Roboto, Arial, sans-serif; font-weight: 500; letter-spacing: 0.3px; }
    </style>
    <filter id="shadow" x="-20%" y="-20%" width="140%" height="140%">
      <feOffset result="offOut" in="SourceAlpha" dx="0" dy="2"/>
      <feGaussianBlur result="blurOut" in="offOut" stdDeviation="2"/>
      <feColorMatrix result="matrixOut" in="blurOut" type="matrix"
        values="0 0 0 0 0
                0 0 0 0 0
                0 0 0 0 0
                0 0 0 0.2 0"/>
      <feBlend in="SourceGraphic" in2="matrixOut" mode="normal"/>
    </filter>
  </defs>

  <!-- Shield + compass icon -->
  <g transform="translate(40,40)">
    <path d="M120 10
             C 90 10 75 25 75 45
             L 75 105
             C 75 145 120 170 120 170
             C 120 170 165 145 165 105
             L 165 45
             C 165 25 150 10 120 10 Z"
          fill="url(#g1)" filter="url(#shadow)"/>
    <ellipse cx="120" cy="78" rx="35" ry="36" fill="none" stroke="#E0F2F1" stroke-width="6"/>
    <g transform="translate(120,78) rotate(-20)">
      <polygon points="0,-30 6,-6 0,30 -6,-6" fill="#FFFFFF"/>
      <circle cx="0" cy="0" r="5" fill="#E0F2F1"/>
    </g>
  </g>

  <!-- Wordmark -->
  <g transform="translate(260,120)">
    <text class="wordmark" x="0" y="0" font-size="86" fill="#0B1220">AIS</text>
    <text class="tagline" x="2" y="46" font-size="28" fill="#0B5563">Anonymous Immigration Support</text>
  </g>
</svg>
